<svg width="167" height="159" viewBox="0 0 167 159" fill="none" xmlns="http://www.w3.org/2000/svg">
<path d="M108.407 116.667H133.333C151.743 116.667 166.667 101.743 166.667 83.3333C166.667 67.6987 155.903 54.5781 141.381 50.978C141.57 49.2892 141.667 47.5726 141.667 45.8333C141.667 20.5203 121.146 0 95.8333 0C74.838 0 57.1398 14.1169 51.7131 33.3766C51.1457 33.3479 50.5745 33.3333 50 33.3333C31.5905 33.3333 16.6667 48.2572 16.6667 66.6667C16.6667 67.1398 16.6765 67.6106 16.696 68.0789C6.97075 71.5025 0 80.7705 0 91.6667C0 105.474 11.1929 116.667 25 116.667H48.7354L84.4313 54.1988C88.6711 46.7792 100 49.7878 100 58.3333V91.6667H108.333C114.732 91.6667 118.743 98.579 115.569 104.134L108.407 116.667Z" fill="white"/>
<path d="M58.3333 116.667L91.6667 58.3333V100H108.333L75 158.333V116.667H58.3333Z" fill="white"/>
</svg>
